<svg width="86" height="25" viewBox="0 0 86 25" fill="none" xmlns="http://www.w3.org/2000/svg">
<g clip-path="url(#clip0_123_50)">
<path d="M6.48848 2.35326L10.3234 0.138624C10.4326 0.0756183 10.5681 0.0756183 10.6773 0.138624L20.7844 5.97397C20.8936 6.03697 20.9608 6.15353 20.9619 6.27954L20.9755 10.293C20.9755 10.42 20.9083 10.5377 20.798 10.6007L16.9684 12.8121C16.7331 12.9487 16.4381 12.7785 16.437 12.5066L16.4244 8.90477C16.4244 8.77876 16.3562 8.6622 16.247 8.59919L6.48848 2.96651C6.25221 2.83 6.25221 2.48977 6.48848 2.35326Z" fill="#010101"/>
<path d="M4.01134 20.5324L0.177465 18.3188C0.0672057 18.2558 0 18.1392 0 18.0121V6.34146C0 6.21545 0.0672057 6.09889 0.176415 6.03483L3.64591 4.01551C3.75617 3.95145 3.89163 3.95145 4.00084 4.01551L7.83051 6.227C8.06573 6.36351 8.06678 6.70269 7.83156 6.84025L4.7191 8.65165C4.60989 8.71466 4.54269 8.83122 4.54269 8.95828V20.2268C4.54269 20.4998 4.24761 20.6699 4.01134 20.5334V20.5324Z" fill="#010101"/>
<path d="M20.9756 13.5839V18.0111C20.9756 18.1382 20.9084 18.2547 20.7981 18.3177L10.691 24.1531C10.5818 24.2161 10.4474 24.2161 10.3382 24.1531L6.85503 22.1579C6.74477 22.0949 6.67651 21.9773 6.67651 21.8502V17.4283C6.67651 17.1564 6.97054 16.9862 7.20681 17.1206L10.3319 18.911C10.4411 18.9741 10.5755 18.973 10.6847 18.911L20.4432 13.2763C20.6794 13.1398 20.9745 13.3099 20.9745 13.5829L20.9756 13.5839Z" fill="#010101"/>
<path d="M53.7509 6.17872H49.8362C49.6661 6.17872 49.5295 6.31629 49.5295 6.4864V13.9326C49.5295 14.885 49.3752 15.682 49.0654 16.3226C48.7556 16.9442 48.3303 17.4105 47.7885 17.7213C47.2467 18.0122 46.6271 18.1592 45.9309 18.1592C44.9239 18.1592 44.1405 17.8578 43.5797 17.2561C43.0379 16.6345 42.767 15.6715 42.767 14.3705V6.48745C42.767 6.31733 42.6294 6.17977 42.4603 6.17977H39.6167C39.5936 6.17557 39.5705 6.17347 39.5474 6.17347H33.8832V5.85845C33.8832 5.10028 34.0575 4.53743 34.4062 4.1678C34.7737 3.77927 35.2872 3.585 35.9445 3.585C36.2932 3.585 36.6219 3.63331 36.9316 3.73097C37.1227 3.79187 37.3107 3.87063 37.4735 3.95674C37.6362 4.04284 37.8379 3.96094 37.8998 3.78662L38.8785 1.07844C38.9289 0.937729 38.8722 0.780216 38.743 0.70566C38.3608 0.484091 37.9124 0.317127 37.3958 0.203717C36.7962 0.0682558 36.1672 0 35.5088 0C33.5745 0 32.0844 0.534495 31.0385 1.60349C29.9937 2.65252 29.4707 4.06174 29.4707 5.83009V6.17347H27.4252C27.2246 6.17347 27.0608 6.31103 27.0608 6.48115V9.36259C27.0608 9.53271 27.2236 9.67027 27.4252 9.67027H29.4707V21.552C29.4707 21.7221 29.6083 21.8597 29.7774 21.8597H33.6911C33.8601 21.8597 33.9977 21.7221 33.9977 21.552V9.67027H38.2379V15.0394C38.2379 16.6523 38.5183 17.9838 39.0801 19.0329C39.6419 20.063 40.4253 20.8306 41.4313 21.3357C42.4572 21.8408 43.6186 22.0939 44.9144 22.0939C46.1147 22.0939 47.2172 21.8219 48.2232 21.2769C48.8218 20.9482 49.3342 20.5282 49.7616 20.0199V21.552C49.7616 21.7221 49.8992 21.8597 50.0682 21.8597H53.7509C53.921 21.8597 54.0575 21.7221 54.0575 21.552V6.48745C54.0575 6.31733 53.92 6.17977 53.7509 6.17977V6.17872Z" fill="#010101"/>
<path d="M66.9318 13.6396C66.3899 13.3088 65.7798 13.0568 65.1025 12.8814C64.4263 12.7071 63.7479 12.5801 63.0706 12.5023C62.4132 12.4047 61.8031 12.2986 61.2414 12.1821C60.6806 12.0655 60.2249 11.9101 59.8773 11.7158C59.5476 11.5216 59.3837 11.2307 59.3837 10.8411C59.3837 10.4137 59.6158 10.064 60.081 9.79207C60.5451 9.5201 61.2812 9.38463 62.2872 9.38463C63.0034 9.38463 63.7385 9.47179 64.4935 9.64716C65.1708 9.78262 65.8397 10.0304 66.5023 10.3896C66.6588 10.4736 66.852 10.4116 66.9276 10.251L68.1772 7.57323C68.2454 7.42727 68.1898 7.25085 68.0491 7.1742C67.3581 6.79721 66.5222 6.50424 65.5394 6.29737C64.4368 6.06425 63.3531 5.94769 62.2883 5.94769C60.7793 5.94769 59.4825 6.17136 58.3988 6.61765C57.3151 7.04609 56.4834 7.63834 55.9027 8.3965C55.3419 9.15466 55.0605 10.0283 55.0605 11.0196C55.0605 11.9132 55.2254 12.642 55.5541 13.2059C55.9027 13.7688 56.3574 14.2161 56.9181 14.5469C57.4799 14.8776 58.0984 15.1297 58.7757 15.305C59.453 15.4604 60.1209 15.5865 60.7783 15.6841C61.4556 15.7818 62.0751 15.8784 62.6359 15.975C63.1966 16.0727 63.6419 16.2186 63.9716 16.4129C64.3202 16.5882 64.4945 16.8602 64.4945 17.2288C64.4945 17.6761 64.2719 18.0258 63.8267 18.2778C63.4014 18.5299 62.6653 18.6569 61.6204 18.6569C60.6722 18.6569 59.7051 18.5215 58.718 18.2495C57.8769 17.9964 57.1313 17.6845 56.4802 17.3139C56.3238 17.2246 56.1253 17.2876 56.0497 17.4514L54.7959 20.1638C54.7297 20.3066 54.7833 20.4757 54.9167 20.5576C55.6045 20.9776 56.4939 21.3357 57.5849 21.6308C58.823 21.9416 60.1104 22.097 61.4451 22.097V22.0949C63.0118 22.0949 64.3381 21.8817 65.4218 21.4544C66.5243 21.027 67.3665 20.4442 67.9472 19.706C68.5279 18.9488 68.8177 18.0836 68.8177 17.1122C68.8177 16.2186 68.6434 15.4993 68.2948 14.9554C67.9462 14.3915 67.4915 13.9546 66.9307 13.6438L66.9318 13.6396Z" fill="#010101"/>
<path d="M84.4976 9.73643C83.7814 8.51202 82.8048 7.57954 81.5657 6.93794C80.3466 6.27743 79.0308 5.94666 77.4441 5.94666C75.8574 5.94666 74.4346 6.29634 73.1776 6.99569C71.9196 7.6751 70.9231 8.62753 70.188 9.85194C69.4719 11.0564 69.1138 12.4656 69.1138 14.0197C69.1138 15.5739 69.4813 16.9642 70.2164 18.1875C70.9514 19.392 71.9868 20.3444 73.3215 21.0438C74.6761 21.7431 76.2428 22.0928 78.0238 22.0928V22.0949C79.4372 22.0949 80.6858 21.8807 81.7684 21.4544C82.7565 21.0469 83.5913 20.4851 84.2739 19.7711C84.3852 19.6545 84.3852 19.4697 84.276 19.35L82.2651 17.1606C82.1517 17.0377 81.9627 17.0293 81.8356 17.1396C81.3725 17.5438 80.8664 17.8547 80.3161 18.072C79.6966 18.3241 78.971 18.4511 78.1393 18.4511C77.211 18.4511 76.3982 18.2863 75.701 17.9555C75.0237 17.6058 74.4913 17.1101 74.1048 16.4696C73.9043 16.1105 73.7615 15.7209 73.6701 15.3029H85.2053C85.3628 15.3029 85.4952 15.1822 85.5099 15.0247C85.5204 14.9165 85.5309 14.8042 85.5403 14.6907C85.5603 14.4576 85.5697 14.2539 85.5697 14.0785C85.5697 12.3879 85.2116 10.9409 84.4955 9.73538L84.4976 9.73643ZM75.4122 9.91179C76.0118 9.56211 76.6996 9.38675 77.4735 9.38675C78.2474 9.38675 78.9248 9.56211 79.5055 9.91179C80.0862 10.2415 80.5408 10.7088 80.8695 11.3105C81.0879 11.7095 81.2318 12.1569 81.3053 12.6504H73.6176C73.6932 12.1653 73.836 11.7274 74.0481 11.3389C74.3779 10.7172 74.8315 10.2415 75.4122 9.91074V9.91179Z" fill="#010101"/>
</g>
<defs>
<clipPath id="clip0_123_50">
<rect width="85.5707" height="24.2014" fill="white"/>
</clipPath>
</defs>
</svg>
