<svg width="401" height="288" viewBox="0 0 401 288" fill="none" xmlns="http://www.w3.org/2000/svg">
<g clip-path="url(#clip0_2_855)">
<path d="M200.5 128.12C224.12 128.12 243.267 109.04 243.267 85.5045C243.267 61.9687 224.12 42.8892 200.5 42.8892C176.88 42.8892 157.733 61.9687 157.733 85.5045C157.733 109.04 176.88 128.12 200.5 128.12Z" stroke="#C4FF7F" stroke-width="11.6509" stroke-miterlimit="10" stroke-linecap="round"/>
<path d="M200.5 128.12C224.12 128.12 243.267 109.04 243.267 85.5045C243.267 61.9687 224.12 42.8892 200.5 42.8892C176.88 42.8892 157.733 61.9687 157.733 85.5045C157.733 109.04 176.88 128.12 200.5 128.12Z" stroke="black" stroke-opacity="0.2" stroke-width="11.6509" stroke-miterlimit="10" stroke-linecap="round"/>
<path d="M188.733 10.0652C174.669 12.1515 161.454 18.6003 150.64 27.7993C77.7701 89.7893 174.666 203.8 196.361 227.617C198.576 230.049 202.386 230.088 204.602 227.657C220.489 210.222 277.083 144.009 277.083 85.5048C277.083 39.5086 236.246 3.01666 188.733 10.0652Z" stroke="#C4FF7F" stroke-width="11.6509" stroke-miterlimit="10" stroke-linecap="round"/>
<path d="M188.733 10.0652C174.669 12.1515 161.454 18.6003 150.64 27.7993C77.7701 89.7893 174.666 203.8 196.361 227.617C198.576 230.049 202.386 230.088 204.602 227.657C220.489 210.222 277.083 144.009 277.083 85.5048C277.083 39.5086 236.246 3.01666 188.733 10.0652Z" stroke="black" stroke-opacity="0.2" stroke-width="11.6509" stroke-miterlimit="10" stroke-linecap="round"/>
<path d="M265.249 194.467C279.859 203.85 288.791 216.413 288.791 230.22C288.791 259.264 249.262 282.809 200.5 282.809C151.738 282.809 112.209 259.264 112.209 230.22C112.209 216.413 121.142 203.848 135.753 194.465" stroke="#C4FF7F" stroke-width="11.6509" stroke-miterlimit="10" stroke-linecap="round"/>
<path d="M265.249 194.467C279.859 203.85 288.791 216.413 288.791 230.22C288.791 259.264 249.262 282.809 200.5 282.809C151.738 282.809 112.209 259.264 112.209 230.22C112.209 216.413 121.142 203.848 135.753 194.465" stroke="black" stroke-opacity="0.2" stroke-width="11.6509" stroke-miterlimit="10" stroke-linecap="round"/>
</g>
<defs>
<clipPath id="clip0_2_855">
<rect width="187" height="284" fill="white" transform="translate(107 4)"/>
</clipPath>
</defs>
</svg>
