<svg width="401" height="288" viewBox="0 0 401 288" fill="none" xmlns="http://www.w3.org/2000/svg">
<g clip-path="url(#clip0_2_749)">
<path d="M397.728 17.7699C328.224 -13.2115 257.563 -3.17927 213.31 43.9394C171.622 88.3309 164.544 152.441 194.283 212.145C185.404 236.832 179.265 261.77 179.464 282.531C179.49 285.563 181.958 288 184.991 288H185.042C188.1 287.97 190.548 285.476 190.517 282.425C190.34 263.638 195.705 241.103 203.63 218.526C328.671 197.511 339.872 144.705 349.726 98.0795C356.055 68.1126 361.521 42.2351 397.514 27.9441C399.582 27.1249 400.954 25.1461 400.999 22.9269C401.045 20.7072 399.755 18.6755 397.728 17.77V17.7699ZM338.906 95.799C329.515 140.252 319.734 186.168 208.084 206.524C220.311 175.138 236.553 144.946 248.938 126.075C250.614 123.523 249.903 120.099 247.348 118.428C244.798 116.764 241.369 117.474 239.693 120.018C227.648 138.37 212.059 167.193 199.748 197.761C177.336 145.096 185.129 90.0878 221.371 51.4959C246.423 24.8188 280.802 11.0785 318.629 11.0785C338.993 11.0785 360.362 15.066 381.803 23.1575C350.585 40.528 344.657 68.5796 338.906 95.799Z" fill="#C4FF7F"/>
<path d="M397.728 17.7699C328.224 -13.2115 257.563 -3.17927 213.31 43.9394C171.622 88.3309 164.544 152.441 194.283 212.145C185.404 236.832 179.265 261.77 179.464 282.531C179.49 285.563 181.958 288 184.991 288H185.042C188.1 287.97 190.548 285.476 190.517 282.425C190.34 263.638 195.705 241.103 203.63 218.526C328.671 197.511 339.872 144.705 349.726 98.0795C356.055 68.1126 361.521 42.2351 397.514 27.9441C399.582 27.1249 400.954 25.1461 400.999 22.9269C401.045 20.7072 399.755 18.6755 397.728 17.77V17.7699ZM338.906 95.799C329.515 140.252 319.734 186.168 208.084 206.524C220.311 175.138 236.553 144.946 248.938 126.075C250.614 123.523 249.903 120.099 247.348 118.428C244.798 116.764 241.369 117.474 239.693 120.018C227.648 138.37 212.059 167.193 199.748 197.761C177.336 145.096 185.129 90.0878 221.371 51.4959C246.423 24.8188 280.802 11.0785 318.629 11.0785C338.993 11.0785 360.362 15.066 381.803 23.1575C350.585 40.528 344.657 68.5796 338.906 95.799Z" fill="black" fill-opacity="0.2"/>
<path d="M38.3851 179.436C47.9704 206.959 59.9197 241.123 140.34 244.714C146.881 257.942 151.771 271.092 153.066 282.082C153.396 284.893 155.784 286.96 158.552 286.96C158.765 286.96 158.984 286.947 159.202 286.922C162.235 286.567 164.404 283.822 164.048 280.794C162.509 267.738 156.738 252.623 149.267 237.857C162.791 197.968 152.697 156.853 122.944 132.297C90.6889 105.671 44.6024 104.953 2.65523 130.43C0.755657 131.584 -0.26539 133.763 0.0597018 135.96C0.389995 138.156 2.00037 139.942 4.15377 140.495C26.8546 146.327 31.9441 160.937 38.3851 179.436ZM115.899 140.81C139.929 160.645 149.252 191.669 141.75 224.044C132.056 207.383 121.09 192.226 112.724 182.445C110.738 180.126 107.248 179.847 104.927 181.833C102.606 183.814 102.331 187.3 104.313 189.618C113.45 200.3 124.835 216.375 134.34 233.326C67.3064 228.773 57.9067 201.871 48.8286 175.809C43.2511 159.791 37.5113 143.311 18.8645 134.141C53.6389 117.167 89.9982 119.426 115.899 140.81Z" fill="#C4FF7F"/>
<path d="M38.3851 179.436C47.9704 206.959 59.9197 241.123 140.34 244.714C146.881 257.942 151.771 271.092 153.066 282.082C153.396 284.893 155.784 286.96 158.552 286.96C158.765 286.96 158.984 286.947 159.202 286.922C162.235 286.567 164.404 283.822 164.048 280.794C162.509 267.738 156.738 252.623 149.267 237.857C162.791 197.968 152.697 156.853 122.944 132.297C90.6889 105.671 44.6024 104.953 2.65523 130.43C0.755657 131.584 -0.26539 133.763 0.0597018 135.96C0.389995 138.156 2.00037 139.942 4.15377 140.495C26.8546 146.327 31.9441 160.937 38.3851 179.436ZM115.899 140.81C139.929 160.645 149.252 191.669 141.75 224.044C132.056 207.383 121.09 192.226 112.724 182.445C110.738 180.126 107.248 179.847 104.927 181.833C102.606 183.814 102.331 187.3 104.313 189.618C113.45 200.3 124.835 216.375 134.34 233.326C67.3064 228.773 57.9067 201.871 48.8286 175.809C43.2511 159.791 37.5113 143.311 18.8645 134.141C53.6389 117.167 89.9982 119.426 115.899 140.81Z" fill="black" fill-opacity="0.2"/>
</g>
<defs>
<clipPath id="clip0_2_749">
<rect width="401" height="288" fill="white"/>
</clipPath>
</defs>
</svg>
