<svg width="401" height="288" viewBox="0 0 401 288" fill="none" xmlns="http://www.w3.org/2000/svg">
<g clip-path="url(#clip0_2_780)">
<path d="M268.76 175.793C269.728 171.691 267.187 167.582 263.084 166.613C258.981 165.645 254.869 168.185 253.9 172.287C252.932 176.388 255.473 180.498 259.576 181.466C263.679 182.434 267.791 179.894 268.76 175.793Z" fill="#C4FF7F"/>
<path d="M268.76 175.793C269.728 171.691 267.187 167.582 263.084 166.613C258.981 165.645 254.869 168.185 253.9 172.287C252.932 176.388 255.473 180.498 259.576 181.466C263.679 182.434 267.791 179.894 268.76 175.793Z" fill="black" fill-opacity="0.2"/>
<path d="M302.405 172.96H298.333C292.267 172.96 286.725 169.755 283.491 164.625C280.68 160.168 277.269 155.988 273.377 152.117C270.69 149.444 269.712 145.503 270.945 141.919L275.918 127.463C276.998 124.323 274.471 121.061 271.166 121.392C262.592 122.249 254.45 124.428 246.679 127.747C241.855 129.807 236.432 130.113 231.367 128.747C222.504 126.357 213.051 124.985 203.15 124.985C153.741 124.985 113.682 156.532 113.682 195.447C113.682 210.574 119.766 224.563 130.084 236.03C137.447 244.213 141.496 254.846 141.496 265.851V268.324C141.496 275.253 146.139 281.62 152.936 282.985C162.219 284.85 170.367 277.805 170.367 268.858L170.367 264.441C170.367 262.765 171.972 261.566 173.575 262.059C182.005 264.651 192.919 265.908 203.15 265.908C208.919 265.908 214.494 265.35 219.927 264.472C222.295 264.09 224.434 265.924 224.434 268.322V268.588C224.434 274.875 228.303 280.746 234.316 282.59C244.227 285.629 253.307 278.303 253.307 268.858V264.096C253.307 257.895 256.398 252.113 261.53 248.628C270.154 242.77 277.364 235.665 282.649 227.637C286.683 221.507 293.631 217.935 300.972 217.935H302.405C306.205 217.935 309.285 214.856 309.285 211.058V179.837C309.285 176.039 306.205 172.96 302.405 172.96V172.96Z" stroke="#C4FF7F" stroke-width="11.6509" stroke-miterlimit="10" stroke-linecap="round"/>
<path d="M302.405 172.96H298.333C292.267 172.96 286.725 169.755 283.491 164.625C280.68 160.168 277.269 155.988 273.377 152.117C270.69 149.444 269.712 145.503 270.945 141.919L275.918 127.463C276.998 124.323 274.471 121.061 271.166 121.392C262.592 122.249 254.45 124.428 246.679 127.747C241.855 129.807 236.432 130.113 231.367 128.747C222.504 126.357 213.051 124.985 203.15 124.985C153.741 124.985 113.682 156.532 113.682 195.447C113.682 210.574 119.766 224.563 130.084 236.03C137.447 244.213 141.496 254.846 141.496 265.851V268.324C141.496 275.253 146.139 281.62 152.936 282.985C162.219 284.85 170.367 277.805 170.367 268.858L170.367 264.441C170.367 262.765 171.972 261.566 173.575 262.059C182.005 264.651 192.919 265.908 203.15 265.908C208.919 265.908 214.494 265.35 219.927 264.472C222.295 264.09 224.434 265.924 224.434 268.322V268.588C224.434 274.875 228.303 280.746 234.316 282.59C244.227 285.629 253.307 278.303 253.307 268.858V264.096C253.307 257.895 256.398 252.113 261.53 248.628C270.154 242.77 277.364 235.665 282.649 227.637C286.683 221.507 293.631 217.935 300.972 217.935H302.405C306.205 217.935 309.285 214.856 309.285 211.058V179.837C309.285 176.039 306.205 172.96 302.405 172.96V172.96Z" stroke="black" stroke-opacity="0.2" stroke-width="11.6509" stroke-miterlimit="10" stroke-linecap="round"/>
<path d="M98.4509 151C90.944 168.84 101.787 184.454 116 180.333" stroke="#C4FF7F" stroke-width="11.6509" stroke-miterlimit="10" stroke-linecap="round"/>
<path d="M98.4509 151C90.944 168.84 101.787 184.454 116 180.333" stroke="black" stroke-opacity="0.2" stroke-width="11.6509" stroke-miterlimit="10" stroke-linecap="round"/>
<path d="M164.824 152.553C176.121 146.112 190.135 142.579 205.172 143.204C211.9 143.484 218.354 144.576 224.393 146.356" stroke="#C4FF7F" stroke-width="11.6509" stroke-miterlimit="10" stroke-linecap="round"/>
<path d="M164.824 152.553C176.121 146.112 190.135 142.579 205.172 143.204C211.9 143.484 218.354 144.576 224.393 146.356" stroke="black" stroke-opacity="0.2" stroke-width="11.6509" stroke-miterlimit="10" stroke-linecap="round"/>
<path d="M192.145 107.169C220.45 107.169 243.396 84.2333 243.396 55.9409C243.396 27.6484 220.45 4.71289 192.145 4.71289C163.84 4.71289 140.894 27.6484 140.894 55.9409C140.894 84.2333 163.84 107.169 192.145 107.169Z" stroke="#C4FF7F" stroke-width="11.6509" stroke-miterlimit="10" stroke-linecap="round"/>
<path d="M192.145 107.169C220.45 107.169 243.396 84.2333 243.396 55.9409C243.396 27.6484 220.45 4.71289 192.145 4.71289C163.84 4.71289 140.894 27.6484 140.894 55.9409C140.894 84.2333 163.84 107.169 192.145 107.169Z" stroke="black" stroke-opacity="0.2" stroke-width="11.6509" stroke-miterlimit="10" stroke-linecap="round"/>
</g>
<defs>
<clipPath id="clip0_2_780">
<rect width="227" height="288" fill="white" transform="translate(87)"/>
</clipPath>
</defs>
</svg>
